<svg xmlns="http://www.w3.org/2000/svg" viewBox="0 0 1440 900" width="1440" height="900" role="img" aria-labelledby="title desc">
  <title id="title">Marblo workspace Start Here tab mockup</title>
  <desc id="desc">Dark Marblo workspace with the Start Here tab open, showing a four-step onboarding checklist and progress bar.</desc>
  <defs>
    <radialGradient id="markBg" cx="50%" cy="24%" r="80%">
      <stop offset="0%" stop-color="#20202f"/>
      <stop offset="55%" stop-color="#121220"/>
      <stop offset="100%" stop-color="#08080e"/>
    </radialGradient>
    <linearGradient id="markSpec" gradientUnits="userSpaceOnUse" x1="14" y1="12" x2="50" y2="52">
      <stop offset="0" stop-color="#ff6fb5"/>
      <stop offset="0.3" stop-color="#c86bff"/>
      <stop offset="0.55" stop-color="#8a7cff"/>
      <stop offset="0.8" stop-color="#4aa8ff"/>
      <stop offset="1" stop-color="#38e0e8"/>
    </linearGradient>
    <linearGradient id="progress" x1="0" y1="0" x2="1" y2="0">
      <stop offset="0%" stop-color="#a6e3a1"/>
      <stop offset="56%" stop-color="#94e2d5"/>
      <stop offset="100%" stop-color="#89b4fa"/>
    </linearGradient>
    <filter id="softShadow" x="-10%" y="-10%" width="120%" height="130%">
      <feDropShadow dx="0" dy="16" stdDeviation="18" flood-color="#000000" flood-opacity="0.24"/>
    </filter>
  </defs>

  <rect x="6" y="6" width="1428" height="888" rx="16" fill="#0a0c12" stroke="#23283a"/>
  <circle cx="34" cy="30" r="6.5" fill="#ff5f57"/>
  <circle cx="56" cy="30" r="6.5" fill="#febc2e"/>
  <circle cx="78" cy="30" r="6.5" fill="#28c840"/>
  <text x="720" y="36" text-anchor="middle" font-size="15" fill="#8b93a7" font-family="system-ui,-apple-system,'Segoe UI',sans-serif">Marblo · Workspace</text>
  <rect x="1352" y="18" width="72" height="24" rx="6" fill="#161a26"/>
  <text x="1388" y="34" text-anchor="middle" font-size="12" fill="#9aa2b4" font-family="system-ui,-apple-system,'Segoe UI',sans-serif">Settings</text>
  <line x1="6" y1="52" x2="1434" y2="52" stroke="#23283a"/>

  <rect x="6" y="52" width="296" height="842" fill="#0d1017"/>
  <line x1="302" y1="52" x2="302" y2="894" stroke="#23283a"/>
  <text x="26" y="82" font-size="13" font-weight="700" fill="#e4e7ee" font-family="system-ui,-apple-system,'Segoe UI',sans-serif">Files</text>
  <rect x="24" y="90" width="34" height="2.5" fill="#6366f1"/>
  <text x="98" y="82" font-size="13" fill="#7b8496" font-family="system-ui,-apple-system,'Segoe UI',sans-serif">Commands</text>
  <text x="195" y="82" font-size="13" fill="#7b8496" font-family="system-ui,-apple-system,'Segoe UI',sans-serif">Chat</text>
  <text x="24" y="124" font-size="13" fill="#8b93a7" font-family="ui-monospace,'SF Mono',Menlo,monospace">▸</text>
  <text x="38" y="124" font-size="13" fill="#c2c8d4" font-family="system-ui,-apple-system,'Segoe UI',sans-serif">marblo</text>
  <text x="42" y="151" font-size="13" fill="#8b93a7" font-family="ui-monospace,'SF Mono',Menlo,monospace">▸</text>
  <text x="56" y="151" font-size="13" fill="#c2c8d4" font-family="system-ui,-apple-system,'Segoe UI',sans-serif">v3</text>
  <text x="60" y="178" font-size="13" fill="#8b93a7" font-family="ui-monospace,'SF Mono',Menlo,monospace">▸</text>
  <text x="74" y="178" font-size="13" fill="#c2c8d4" font-family="system-ui,-apple-system,'Segoe UI',sans-serif">src</text>
  <text x="78" y="205" font-size="13" fill="#8b93a7" font-family="ui-monospace,'SF Mono',Menlo,monospace">▸</text>
  <text x="92" y="205" font-size="13" fill="#c2c8d4" font-family="system-ui,-apple-system,'Segoe UI',sans-serif">components</text>
  <text x="96" y="232" font-size="13" fill="#5aa9e6" font-family="ui-monospace,'SF Mono',Menlo,monospace">TX</text>
  <text x="116" y="232" font-size="13" fill="#c2c8d4" font-family="system-ui,-apple-system,'Segoe UI',sans-serif">WorkspaceShell.tsx</text>
  <rect x="10" y="244" width="284" height="24" rx="5" fill="#1b2740"/>
  <text x="96" y="259" font-size="13" fill="#5aa9e6" font-family="ui-monospace,'SF Mono',Menlo,monospace">TX</text>
  <text x="116" y="259" font-size="13" fill="#fff" font-family="system-ui,-apple-system,'Segoe UI',sans-serif">StartHereTab.tsx</text>
  <text x="96" y="286" font-size="13" fill="#5aa9e6" font-family="ui-monospace,'SF Mono',Menlo,monospace">TX</text>
  <text x="116" y="286" font-size="13" fill="#c2c8d4" font-family="system-ui,-apple-system,'Segoe UI',sans-serif">CliSetupRows.tsx</text>
  <text x="42" y="313" font-size="13" fill="#8b93a7" font-family="ui-monospace,'SF Mono',Menlo,monospace">▸</text>
  <text x="56" y="313" font-size="13" fill="#c2c8d4" font-family="system-ui,-apple-system,'Segoe UI',sans-serif">marblo-web</text>
  <text x="60" y="340" font-size="13" fill="#e0a458" font-family="ui-monospace,'SF Mono',Menlo,monospace">MD</text>
  <text x="80" y="340" font-size="13" fill="#c2c8d4" font-family="system-ui,-apple-system,'Segoe UI',sans-serif">README.md</text>

  <line x1="722" y1="52" x2="722" y2="894" stroke="#23283a"/>
  <text x="316" y="78" font-size="11" font-weight="700" letter-spacing="0.08em" fill="#5b6478" font-family="system-ui,-apple-system,'Segoe UI',sans-serif">TERMINALS</text>
  <svg x="316" y="94" width="30" height="30" viewBox="0 0 64 64">
    <rect width="64" height="64" rx="15" fill="url(#markBg)"/>
    <circle cx="32" cy="32" r="20" fill="none" stroke="url(#markSpec)" stroke-width="2.6"/>
    <path d="M24 26 L30 32 L24 38" fill="none" stroke="#fff" stroke-width="2.6" stroke-linecap="round" stroke-linejoin="round"/>
    <rect x="33.5" y="26" width="4.4" height="12" rx="1.6" fill="#fff"/>
    <circle cx="32" cy="12" r="4.2" fill="#ffb020"/>
    <circle cx="49.3" cy="42" r="4.2" fill="#22d3ee"/>
    <circle cx="14.7" cy="42" r="4.2" fill="#34d399"/>
  </svg>
  <text x="356" y="108" font-size="15" font-weight="700" fill="#e8ebf2" font-family="system-ui,-apple-system,'Segoe UI',sans-serif">Orchestrator</text>
  <text x="356" y="124" font-size="11.5" fill="#8b93a7" font-family="system-ui,-apple-system,'Segoe UI',sans-serif">agent terminal · auto-routing</text>
  <circle cx="676" cy="104" r="4" fill="#22c55e"/>
  <text x="688" y="108" font-size="11.5" fill="#22c55e" font-family="system-ui,-apple-system,'Segoe UI',sans-serif">live</text>
  <rect x="316" y="150" width="398" height="30" rx="9" fill="#1a1f2e"/>
  <text x="330" y="170" font-size="12.5" fill="#c7ccd8" font-family="system-ui,-apple-system,'Segoe UI',sans-serif">Open the workspace and help a new user land.</text>
  <circle cx="322" cy="201" r="3.4" fill="#818cf8"/>
  <text x="334" y="205" font-size="12.5" fill="#d7dbe4" font-family="system-ui,-apple-system,'Segoe UI',sans-serif">Reading onboarding state and CLI probes.</text>
  <circle cx="322" cy="227" r="3.4" fill="#818cf8"/>
  <text x="334" y="231" font-size="12.5" fill="#d7dbe4" font-family="system-ui,-apple-system,'Segoe UI',sans-serif">Start Here is pinned as the first tab.</text>
  <circle cx="322" cy="253" r="3.4" fill="#818cf8"/>
  <text x="334" y="257" font-size="12.5" fill="#d7dbe4" font-family="system-ui,-apple-system,'Segoe UI',sans-serif">Progress stays resumable across sessions.</text>
  <circle cx="322" cy="279" r="3.4" fill="#818cf8"/>
  <text x="334" y="283" font-size="12.5" fill="#8b93a7" font-family="ui-monospace,'SF Mono',Menlo,monospace">waiting for first ticket...</text>
  <rect x="502" y="274" width="7" height="14" fill="#818cf8" opacity="0.8"/>
  <rect x="312" y="312" width="402" height="32" rx="9" fill="#12151f" stroke="#23283a"/>
  <text x="328" y="333" font-size="12.5" fill="#5b6478" font-family="system-ui,-apple-system,'Segoe UI',sans-serif">Message the orchestrator...</text>

  <text x="318" y="375" font-size="14.5" font-weight="700" fill="#e4e7ee" font-family="system-ui,-apple-system,'Segoe UI',sans-serif">Agents</text>
  <text x="712" y="375" text-anchor="end" font-size="11.5" fill="#8b93a7" font-family="system-ui,-apple-system,'Segoe UI',sans-serif">4 ready</text>
  <line x1="308" y1="385" x2="716" y2="385" stroke="#20242f"/>
  <rect x="312" y="396" width="402" height="42" rx="10" fill="#10131c" stroke="#1c2130"/>
  <circle cx="330" cy="417" r="5.5" fill="#d97757"/>
  <text x="346" y="415" font-size="13.5" font-weight="600" fill="#e7eaf1" font-family="system-ui,-apple-system,'Segoe UI',sans-serif">Claude</text>
  <circle cx="350" cy="430" r="3.2" fill="#22c55e"/>
  <text x="359" y="433" font-size="11" fill="#22c55e" font-family="system-ui,-apple-system,'Segoe UI',sans-serif">ready</text>
  <text x="702" y="433" text-anchor="end" font-size="11.5" fill="#8b93a7" font-family="system-ui,-apple-system,'Segoe UI',sans-serif">authenticated</text>
  <rect x="312" y="444" width="402" height="42" rx="10" fill="#10131c" stroke="#1c2130"/>
  <circle cx="330" cy="465" r="5.5" fill="#10a37f"/>
  <text x="346" y="463" font-size="13.5" font-weight="600" fill="#e7eaf1" font-family="system-ui,-apple-system,'Segoe UI',sans-serif">Codex</text>
  <circle cx="350" cy="478" r="3.2" fill="#22c55e"/>
  <text x="359" y="481" font-size="11" fill="#22c55e" font-family="system-ui,-apple-system,'Segoe UI',sans-serif">ready</text>
  <text x="702" y="481" text-anchor="end" font-size="11.5" fill="#8b93a7" font-family="system-ui,-apple-system,'Segoe UI',sans-serif">CLI installed</text>
  <rect x="312" y="492" width="402" height="42" rx="10" fill="#10131c" stroke="#1c2130"/>
  <circle cx="330" cy="513" r="5.5" fill="#f59e0b"/>
  <text x="346" y="511" font-size="13.5" font-weight="600" fill="#e7eaf1" font-family="system-ui,-apple-system,'Segoe UI',sans-serif">Opus</text>
  <circle cx="350" cy="526" r="3.2" fill="#f59e0b"/>
  <text x="359" y="529" font-size="11" fill="#f59e0b" font-family="system-ui,-apple-system,'Segoe UI',sans-serif">optional</text>
  <text x="702" y="529" text-anchor="end" font-size="11.5" fill="#8b93a7" font-family="system-ui,-apple-system,'Segoe UI',sans-serif">vendor path</text>
  <rect x="312" y="540" width="402" height="42" rx="10" fill="#10131c" stroke="#1c2130"/>
  <circle cx="330" cy="561" r="5.5" fill="#3b82f6"/>
  <text x="346" y="559" font-size="13.5" font-weight="600" fill="#e7eaf1" font-family="system-ui,-apple-system,'Segoe UI',sans-serif">Kimi</text>
  <circle cx="350" cy="574" r="3.2" fill="#6b7280"/>
  <text x="359" y="577" font-size="11" fill="#6b7280" font-family="system-ui,-apple-system,'Segoe UI',sans-serif">idle</text>
  <text x="702" y="577" text-anchor="end" font-size="11.5" fill="#8b93a7" font-family="system-ui,-apple-system,'Segoe UI',sans-serif">available later</text>

  <text x="738" y="82" font-size="12.5" font-weight="700" fill="#e4e7ee" font-family="system-ui,-apple-system,'Segoe UI',sans-serif">Start Here</text>
  <rect x="738" y="90" width="62" height="2.5" fill="#6366f1"/>
  <text x="831" y="82" font-size="12.5" fill="#7b8496" font-family="system-ui,-apple-system,'Segoe UI',sans-serif">Board</text>
  <text x="888.5" y="82" font-size="12.5" fill="#7b8496" font-family="system-ui,-apple-system,'Segoe UI',sans-serif">Agents</text>
  <text x="953.1" y="82" font-size="12.5" fill="#7b8496" font-family="system-ui,-apple-system,'Segoe UI',sans-serif">Project</text>
  <text x="1024.8" y="82" font-size="12.5" fill="#7b8496" font-family="system-ui,-apple-system,'Segoe UI',sans-serif">Code</text>
  <text x="1075.2" y="82" font-size="12.5" fill="#7b8496" font-family="system-ui,-apple-system,'Segoe UI',sans-serif">Worktrees</text>
  <text x="1161.1" y="82" font-size="12.5" fill="#7b8496" font-family="system-ui,-apple-system,'Segoe UI',sans-serif">History</text>
  <line x1="722" y1="96" x2="1434" y2="96" stroke="#23283a"/>

  <rect x="722" y="96" width="712" height="798" fill="#11131b"/>
  <g filter="url(#softShadow)">
    <rect x="792" y="126" width="572" height="714" rx="12" fill="#181825" stroke="#313244"/>
  </g>
  <text x="824" y="166" font-size="24" font-weight="700" fill="#cdd6f4" font-family="system-ui,-apple-system,'Segoe UI',sans-serif">Start Here</text>
  <text x="824" y="190" font-size="13.5" fill="#a6adc8" font-family="system-ui,-apple-system,'Segoe UI',sans-serif">Set up the workspace, connect a project, and send the first ticket.</text>
  <rect x="1186" y="146" width="74" height="28" rx="7" fill="#1e2330" stroke="#45475a"/>
  <text x="1223" y="164" text-anchor="middle" font-size="12" font-weight="600" fill="#cdd6f4" font-family="system-ui,-apple-system,'Segoe UI',sans-serif">Demo</text>
  <rect x="1272" y="146" width="60" height="28" rx="7" fill="#1e2330" stroke="#45475a"/>
  <text x="1302" y="164" text-anchor="middle" font-size="12" font-weight="600" fill="#cdd6f4" font-family="system-ui,-apple-system,'Segoe UI',sans-serif">Check</text>

  <rect x="824" y="218" width="406" height="8" rx="4" fill="#313244"/>
  <rect x="824" y="218" width="210" height="8" rx="4" fill="url(#progress)"/>
  <text x="1248" y="227" font-size="12.5" font-weight="600" fill="#a6adc8" font-family="system-ui,-apple-system,'Segoe UI',sans-serif">2 / 4 complete</text>

  <rect x="824" y="258" width="508" height="86" rx="10" fill="#141722" stroke="#a6e3a1" stroke-opacity="0.34"/>
  <circle cx="850" cy="288" r="12" fill="#a6e3a1"/>
  <path d="M844 288.5 L848.5 293 L856.5 283.5" fill="none" stroke="#1e1e2e" stroke-width="2.4" stroke-linecap="round" stroke-linejoin="round"/>
  <text x="878" y="284" font-size="15" font-weight="700" fill="#cdd6f4" font-family="system-ui,-apple-system,'Segoe UI',sans-serif">Install CLI</text>
  <rect x="964" y="269" width="48" height="20" rx="4" fill="#a6e3a1" fill-opacity="0.15"/>
  <text x="988" y="283" text-anchor="middle" font-size="10.5" font-weight="700" fill="#a6e3a1" font-family="system-ui,-apple-system,'Segoe UI',sans-serif">DONE</text>
  <text x="878" y="308" font-size="12.5" fill="#7f849c" font-family="system-ui,-apple-system,'Segoe UI',sans-serif">Required tools are detected before the agent can run work.</text>
  <rect x="878" y="320" width="168" height="18" rx="4" fill="#1e2330"/>
  <text x="892" y="333" font-size="10.5" fill="#a6adc8" font-family="ui-monospace,'SF Mono',Menlo,monospace">claude --version</text>
  <rect x="1058" y="320" width="156" height="18" rx="4" fill="#1e2330"/>
  <text x="1072" y="333" font-size="10.5" fill="#a6adc8" font-family="ui-monospace,'SF Mono',Menlo,monospace">codex --version</text>

  <rect x="824" y="358" width="508" height="86" rx="10" fill="#141722" stroke="#a6e3a1" stroke-opacity="0.34"/>
  <circle cx="850" cy="388" r="12" fill="#a6e3a1"/>
  <path d="M844 388.5 L848.5 393 L856.5 383.5" fill="none" stroke="#1e1e2e" stroke-width="2.4" stroke-linecap="round" stroke-linejoin="round"/>
  <text x="878" y="384" font-size="15" font-weight="700" fill="#cdd6f4" font-family="system-ui,-apple-system,'Segoe UI',sans-serif">Authenticate</text>
  <rect x="986" y="369" width="48" height="20" rx="4" fill="#a6e3a1" fill-opacity="0.15"/>
  <text x="1010" y="383" text-anchor="middle" font-size="10.5" font-weight="700" fill="#a6e3a1" font-family="system-ui,-apple-system,'Segoe UI',sans-serif">DONE</text>
  <text x="878" y="408" font-size="12.5" fill="#7f849c" font-family="system-ui,-apple-system,'Segoe UI',sans-serif">One signed-in provider is enough to continue the setup path.</text>
  <rect x="878" y="420" width="132" height="18" rx="4" fill="#1e2330"/>
  <text x="892" y="433" font-size="10.5" fill="#a6adc8" font-family="system-ui,-apple-system,'Segoe UI',sans-serif">Claude ready</text>
  <rect x="1022" y="420" width="118" height="18" rx="4" fill="#1e2330"/>
  <text x="1036" y="433" font-size="10.5" fill="#a6adc8" font-family="system-ui,-apple-system,'Segoe UI',sans-serif">Codex ready</text>

  <rect x="824" y="458" width="508" height="132" rx="10" fill="#141722" stroke="#89b4fa" stroke-opacity="0.55"/>
  <circle cx="850" cy="488" r="12" fill="#89b4fa"/>
  <text x="850" y="493" text-anchor="middle" font-size="12" font-weight="800" fill="#1e1e2e" font-family="system-ui,-apple-system,'Segoe UI',sans-serif">3</text>
  <text x="878" y="484" font-size="15" font-weight="700" fill="#cdd6f4" font-family="system-ui,-apple-system,'Segoe UI',sans-serif">Connect project</text>
  <rect x="1000" y="469" width="64" height="20" rx="4" fill="#89b4fa" fill-opacity="0.15"/>
  <text x="1032" y="483" text-anchor="middle" font-size="10.5" font-weight="700" fill="#89b4fa" font-family="system-ui,-apple-system,'Segoe UI',sans-serif">CURRENT</text>
  <text x="878" y="508" font-size="12.5" fill="#7f849c" font-family="system-ui,-apple-system,'Segoe UI',sans-serif">Choose a local folder so Marblo can route work into the repo.</text>
  <rect x="878" y="526" width="414" height="38" rx="7" fill="#89b4fa"/>
  <text x="1085" y="550" text-anchor="middle" font-size="14" font-weight="700" fill="#1e1e2e" font-family="system-ui,-apple-system,'Segoe UI',sans-serif">Connect local folder</text>
  <text x="878" y="582" font-size="11.5" fill="#7f849c" font-family="system-ui,-apple-system,'Segoe UI',sans-serif">Tip: the setup remains available even after this tab is dismissed.</text>

  <rect x="824" y="604" width="508" height="96" rx="10" fill="#141722" stroke="#313244"/>
  <circle cx="850" cy="634" r="12" fill="#313244"/>
  <text x="850" y="639" text-anchor="middle" font-size="12" font-weight="800" fill="#7f849c" font-family="system-ui,-apple-system,'Segoe UI',sans-serif">4</text>
  <text x="878" y="630" font-size="15" font-weight="700" fill="#cdd6f4" font-family="system-ui,-apple-system,'Segoe UI',sans-serif">Create first ticket</text>
  <rect x="1006" y="615" width="72" height="20" rx="4" fill="#585b70" fill-opacity="0.3"/>
  <text x="1042" y="629" text-anchor="middle" font-size="10.5" font-weight="700" fill="#a6adc8" font-family="system-ui,-apple-system,'Segoe UI',sans-serif">REMAINING</text>
  <text x="878" y="654" font-size="12.5" fill="#7f849c" font-family="system-ui,-apple-system,'Segoe UI',sans-serif">Send a starter task to the orchestrator and watch it route.</text>
  <rect x="878" y="672" width="176" height="20" rx="4" fill="#1e2330"/>
  <text x="892" y="686" font-size="10.5" fill="#a6adc8" font-family="system-ui,-apple-system,'Segoe UI',sans-serif">first ticket queued</text>

  <rect x="824" y="722" width="508" height="72" rx="9" fill="#f9e2af" fill-opacity="0.05" stroke="#f9e2af" stroke-opacity="0.24"/>
  <text x="848" y="750" font-size="13" font-weight="700" fill="#f9e2af" font-family="system-ui,-apple-system,'Segoe UI',sans-serif">Fallbacks stay visible</text>
  <text x="848" y="774" font-size="12.5" fill="#a6adc8" font-family="system-ui,-apple-system,'Segoe UI',sans-serif">Manual install, alternate provider auth, and folder reconnect remain one click away.</text>
</svg>
