<svg xmlns="http://www.w3.org/2000/svg" width="1024" height="1024" viewBox="0 0 1024 1024">
  
  <defs>
    <radialGradient id="bgglowv1" cx="50%" cy="26%" r="75%">
      <stop offset="0%" stop-color="#232338"/>
      <stop offset="46%" stop-color="#131320"/>
      <stop offset="100%" stop-color="#08080e"/>
    </radialGradient>
    <linearGradient id="framev1" x1="0" y1="0" x2="0" y2="1">
      <stop offset="0%" stop-color="#ffffff" stop-opacity="0.22"/>
      <stop offset="55%" stop-color="#ffffff" stop-opacity="0.05"/>
      <stop offset="100%" stop-color="#ffffff" stop-opacity="0.10"/>
    </linearGradient>
    <filter id="bloomv1" x="-60%" y="-60%" width="220%" height="220%">
      <feGaussianBlur stdDeviation="26" result="b"/>
      <feMerge><feMergeNode in="b"/><feMergeNode in="SourceGraphic"/></feMerge>
    </filter>
    <filter id="softbloomv1" x="-80%" y="-80%" width="260%" height="260%">
      <feGaussianBlur stdDeviation="48"/>
    </filter>
  </defs>
  <rect x="0" y="0" width="1024" height="1024" rx="230" fill="url(#bgglowv1)"/>
  <rect x="66" y="66" width="892" height="892" rx="176"
        fill="none" stroke="url(#framev1)" stroke-width="3"/>
  <circle cx="512.0" cy="512.0" r="150" fill="#A78BFA" opacity="0.25" filter="url(#softbloomv1)"/>
  <g filter="url(#bloomv1)">
    <ellipse cx="512.0" cy="512.0" rx="300" ry="116" fill="none" stroke="#FFB020" stroke-width="30" opacity="0.55" transform="rotate(0.0 512.0 512.0)" stroke-linecap="round"/><ellipse cx="512.0" cy="512.0" rx="300" ry="116" fill="none" stroke="#22D3EE" stroke-width="30" opacity="0.55" transform="rotate(30.0 512.0 512.0)" stroke-linecap="round"/><ellipse cx="512.0" cy="512.0" rx="300" ry="116" fill="none" stroke="#34D399" stroke-width="30" opacity="0.55" transform="rotate(60.0 512.0 512.0)" stroke-linecap="round"/><ellipse cx="512.0" cy="512.0" rx="300" ry="116" fill="none" stroke="#FFB020" stroke-width="30" opacity="0.55" transform="rotate(90.0 512.0 512.0)" stroke-linecap="round"/><ellipse cx="512.0" cy="512.0" rx="300" ry="116" fill="none" stroke="#22D3EE" stroke-width="30" opacity="0.55" transform="rotate(120.0 512.0 512.0)" stroke-linecap="round"/><ellipse cx="512.0" cy="512.0" rx="300" ry="116" fill="none" stroke="#34D399" stroke-width="30" opacity="0.55" transform="rotate(150.0 512.0 512.0)" stroke-linecap="round"/>
  </g>
  <g>
    <ellipse cx="512.0" cy="512.0" rx="300" ry="116" fill="none" stroke="#FFB020" stroke-width="15" opacity="0.95" transform="rotate(0.0 512.0 512.0)" stroke-linecap="round"/><ellipse cx="512.0" cy="512.0" rx="300" ry="116" fill="none" stroke="#22D3EE" stroke-width="15" opacity="0.95" transform="rotate(30.0 512.0 512.0)" stroke-linecap="round"/><ellipse cx="512.0" cy="512.0" rx="300" ry="116" fill="none" stroke="#34D399" stroke-width="15" opacity="0.95" transform="rotate(60.0 512.0 512.0)" stroke-linecap="round"/><ellipse cx="512.0" cy="512.0" rx="300" ry="116" fill="none" stroke="#FFB020" stroke-width="15" opacity="0.95" transform="rotate(90.0 512.0 512.0)" stroke-linecap="round"/><ellipse cx="512.0" cy="512.0" rx="300" ry="116" fill="none" stroke="#22D3EE" stroke-width="15" opacity="0.95" transform="rotate(120.0 512.0 512.0)" stroke-linecap="round"/><ellipse cx="512.0" cy="512.0" rx="300" ry="116" fill="none" stroke="#34D399" stroke-width="15" opacity="0.95" transform="rotate(150.0 512.0 512.0)" stroke-linecap="round"/>
  </g>
  <circle cx="512.0" cy="512.0" r="34" fill="#ffffff" opacity="0.92"/>
</svg>